<svg width="14" height="8" viewBox="0 0 14 8" fill="none" xmlns="http://www.w3.org/2000/svg">
<path d="M13.8396 3.6129C13.8394 3.61273 13.8393 3.61254 13.8391 3.61238L10.9816 0.768631C10.7675 0.555596 10.4213 0.556389 10.2082 0.77049C9.9951 0.984564 9.99592 1.33082 10.21 1.54388L12.1285 3.45313H0.546875C0.244836 3.45313 0 3.69796 0 4C0 4.30204 0.244836 4.54688 0.546875 4.54688H12.1285L10.21 6.45612C9.99594 6.66919 9.99512 7.01544 10.2082 7.22951C10.4213 7.44364 10.7676 7.44438 10.9816 7.23137L13.8391 4.38763C13.8393 4.38746 13.8394 4.38727 13.8396 4.38711C14.0538 4.17333 14.0531 3.82596 13.8396 3.6129Z" fill="#6A687D"/>
</svg>
