<svg width="31" height="30" viewBox="0 0 31 30" fill="none" xmlns="http://www.w3.org/2000/svg">
<path d="M8.98754 19.8385H26.7752C28.7921 19.8385 30.4375 18.3027 30.4375 16.4203V9.43525C30.4375 9.42906 30.4375 9.41668 30.4375 9.41048C30.4375 9.39191 30.4375 9.37952 30.4375 9.36094C30.4375 9.34856 30.4375 9.33617 30.4309 9.32379C30.4309 9.31141 30.4242 9.29283 30.4242 9.28044C30.4242 9.26806 30.4176 9.25567 30.4176 9.24329C30.411 9.2309 30.411 9.21852 30.4043 9.19994C30.3977 9.18756 30.3977 9.17517 30.3911 9.16279C30.3844 9.1504 30.3844 9.13802 30.3778 9.12563C30.3712 9.11325 30.3645 9.10086 30.3579 9.08229C30.3512 9.0699 30.3446 9.05752 30.338 9.05133C30.3313 9.03894 30.3247 9.02656 30.3181 9.01417C30.3114 9.00179 30.3048 8.99559 30.2982 8.98321C30.2915 8.97082 30.2783 8.95844 30.2716 8.94605C30.265 8.93367 30.2584 8.92748 30.2451 8.91509C30.2385 8.90271 30.2252 8.89651 30.2186 8.88413C30.2119 8.87175 30.1987 8.86555 30.192 8.85317C30.1854 8.84078 30.1721 8.83459 30.1655 8.8284C30.1522 8.81601 30.1456 8.80982 30.1323 8.79744C30.119 8.79125 30.1124 8.77886 30.0991 8.77267C30.0859 8.76648 30.0726 8.75409 30.0593 8.7479C30.0461 8.74171 30.0394 8.73551 30.0261 8.72932C30.0129 8.72313 29.9996 8.71694 29.9863 8.70455C29.9731 8.69836 29.9598 8.69217 29.9465 8.68597C29.9333 8.67978 29.92 8.67359 29.9067 8.6674C29.8935 8.6612 29.8802 8.65501 29.8669 8.64882C29.8536 8.64263 29.8404 8.64263 29.8271 8.63644C29.8138 8.63024 29.7939 8.62405 29.7807 8.62405C29.7674 8.62405 29.7541 8.61786 29.7475 8.61786C29.7276 8.61167 29.7143 8.61167 29.6944 8.61167C29.6878 8.61167 29.6811 8.60547 29.6679 8.60547L7.1232 5.70125V2.76606C7.1232 2.7351 7.1232 2.70413 7.11656 2.67937C7.11656 2.67317 7.11656 2.66698 7.10993 2.6546C7.10993 2.63602 7.10329 2.61744 7.10329 2.59886C7.09666 2.58029 7.09666 2.5679 7.09002 2.54933C7.09002 2.53694 7.08339 2.53075 7.08339 2.51836C7.07675 2.49979 7.07012 2.48121 7.06348 2.46263C7.06348 2.45644 7.05685 2.44405 7.05685 2.43786C7.05021 2.41929 7.04358 2.4069 7.03031 2.38832C7.02368 2.38213 7.02368 2.36975 7.01704 2.36355C7.01041 2.35117 7.00377 2.33878 6.9905 2.3264C6.98387 2.31401 6.97723 2.30782 6.9706 2.29544C6.96396 2.28305 6.95733 2.27686 6.95069 2.26448C6.94406 2.25209 6.93079 2.23971 6.92416 2.22732C6.91752 2.22113 6.91089 2.21494 6.90425 2.20874C6.89098 2.19636 6.87771 2.18397 6.86444 2.17159C6.85781 2.1654 6.85117 2.15921 6.84454 2.15301C6.83127 2.14063 6.818 2.12824 6.7981 2.11586C6.79146 2.10967 6.77819 2.10347 6.77156 2.09728C6.75829 2.0849 6.74502 2.0787 6.73175 2.06632C6.71184 2.05394 6.69194 2.04155 6.67867 2.03536C6.67204 2.02917 6.6654 2.02917 6.65877 2.02297C6.63223 2.01059 6.59905 1.9982 6.57252 1.98582L1.68275 0.0661811C1.22496 -0.113398 0.700814 0.0847582 0.508408 0.512032C0.316002 0.939307 0.528312 1.4285 0.986106 1.60808L5.32519 3.31718V7.10692V7.70758V12.3147V16.4326V21.6342C5.32519 23.3681 6.71848 24.8047 8.51648 25.0215C8.19138 25.5292 7.99898 26.1237 7.99898 26.7553C7.99898 28.6192 9.62447 30.1302 11.6149 30.1302C13.6053 30.1302 15.2308 28.6131 15.2308 26.7553C15.2308 26.1361 15.0517 25.5478 14.7332 25.0524H22.7877C22.4692 25.554 22.2901 26.1361 22.2901 26.7553C22.2901 28.6192 23.9156 30.1302 25.906 30.1302C27.8964 30.1302 29.5219 28.6131 29.5219 26.7553C29.5219 24.8976 27.8964 23.3805 25.906 23.3805H8.98754C7.95253 23.3805 7.11656 22.5941 7.11656 21.6342V19.3678C7.66061 19.6651 8.30417 19.8385 8.98754 19.8385ZM13.4461 26.7491C13.4461 27.6904 12.6234 28.4521 11.6215 28.4521C10.6197 28.4521 9.79698 27.6842 9.79698 26.7491C9.79698 25.8141 10.6197 25.0462 11.6215 25.0462C12.6234 25.0462 13.4461 25.8079 13.4461 26.7491ZM27.7372 26.7491C27.7372 27.6904 26.9145 28.4521 25.9126 28.4521C24.9108 28.4521 24.0881 27.6842 24.0881 26.7491C24.0881 25.8141 24.9108 25.0462 25.9126 25.0462C26.9145 25.0462 27.7372 25.8079 27.7372 26.7491ZM26.7752 18.1665H8.98754C7.95253 18.1665 7.11656 17.3801 7.11656 16.4203V12.3023V7.69519V7.38557L28.6461 10.1536V16.4141C28.6461 17.3863 27.8035 18.1665 26.7752 18.1665Z" fill="#6A687D"/>
</svg>
