<svg width="17" height="17" viewBox="0 0 17 17" fill="none" xmlns="http://www.w3.org/2000/svg">
<path d="M5.87005 17H1.96589C0.881908 17 0 16.1181 0 15.0341V11.13C0 10.046 0.881908 9.16406 1.96589 9.16406H5.87005C6.95403 9.16406 7.83594 10.046 7.83594 11.13V15.0341C7.83594 16.1181 6.95403 17 5.87005 17ZM6.50781 11.13C6.50781 10.7783 6.2217 10.4922 5.87005 10.4922H1.96589C1.61424 10.4922 1.32812 10.7783 1.32812 11.13V15.0341C1.32812 15.3858 1.61424 15.6719 1.96589 15.6719H5.87005C6.2217 15.6719 6.50781 15.3858 6.50781 15.0341V11.13Z" fill="white"/>
<path d="M15.0078 17H11.1562C10.0578 17 9.16406 16.1063 9.16406 15.0078V11.1562C9.16406 10.0578 10.0578 9.16406 11.1562 9.16406H15.0078C16.1063 9.16406 17 10.0578 17 11.1562V15.0078C17 16.1063 16.1063 17 15.0078 17ZM15.6719 11.1562C15.6719 10.7901 15.374 10.4922 15.0078 10.4922H11.1562C10.7901 10.4922 10.4922 10.7901 10.4922 11.1562V15.0078C10.4922 15.374 10.7901 15.6719 11.1562 15.6719H15.0078C15.374 15.6719 15.6719 15.374 15.6719 15.0078V11.1562Z" fill="white"/>
<path d="M5.87005 7.83594H1.96589C0.881908 7.83594 0 6.95403 0 5.87005V1.96589C0 0.881908 0.881908 0 1.96589 0H5.87005C6.95403 0 7.83594 0.881908 7.83594 1.96589V5.87005C7.83594 6.95403 6.95403 7.83594 5.87005 7.83594ZM6.50781 1.96589C6.50781 1.61424 6.2217 1.32812 5.87005 1.32812H1.96589C1.61424 1.32812 1.32812 1.61424 1.32812 1.96589V5.87005C1.32812 6.2217 1.61424 6.50781 1.96589 6.50781H5.87005C6.2217 6.50781 6.50781 6.2217 6.50781 5.87005V1.96589Z" fill="white"/>
<path d="M15.0078 7.83594H11.1562C10.0578 7.83594 9.16406 6.94224 9.16406 5.84375V1.99219C9.16406 0.893695 10.0578 0 11.1562 0H15.0078C16.1063 0 17 0.893695 17 1.99219V5.84375C17 6.94224 16.1063 7.83594 15.0078 7.83594ZM15.6719 1.99219C15.6719 1.62602 15.374 1.32812 15.0078 1.32812H11.1562C10.7901 1.32812 10.4922 1.62602 10.4922 1.99219V5.84375C10.4922 6.20991 10.7901 6.50781 11.1562 6.50781H15.0078C15.374 6.50781 15.6719 6.20991 15.6719 5.84375V1.99219Z" fill="white"/>
</svg>
