<svg width="13" height="14" viewBox="0 0 13 14" fill="none" xmlns="http://www.w3.org/2000/svg">
<g clip-path="url(#clip0)">
<path d="M0.671899 13.5C0.500657 13.5 0.329415 13.4349 0.19931 13.3038C-0.0618794 13.0426 -0.0618794 12.6192 0.19931 12.358L11.8614 0.695892C12.1226 0.434703 12.5461 0.434703 12.8072 0.695892C13.0684 0.957081 13.0684 1.38053 12.8072 1.64188L1.14531 13.3038C1.01422 13.4341 0.842978 13.5 0.671899 13.5Z" fill="#5E64EC"/>
<path d="M12.3348 13.5C12.1636 13.5 11.9925 13.4349 11.8622 13.3038L0.19931 1.64188C-0.0618794 1.38053 -0.0618794 0.957081 0.19931 0.695892C0.460499 0.434703 0.883953 0.434703 1.14531 0.695892L12.8072 12.358C13.0684 12.6192 13.0684 13.0426 12.8072 13.3038C12.6762 13.4341 12.5051 13.5 12.3348 13.5Z" fill="#5E64EC"/>
</g>
<defs>
<clipPath id="clip0">
<rect width="13" height="13" fill="white" transform="translate(0 0.5)"/>
</clipPath>
</defs>
</svg>
