<svg width="30" height="30" viewBox="0 0 30 30" fill="none" xmlns="http://www.w3.org/2000/svg">
<path d="M15 30C14.7259 30 14.4517 29.8954 14.2425 29.6861C13.4619 28.9056 12.6814 28.1396 11.9102 27.3832C5.78509 21.3731 0 15.6958 0 8.03571C0 5.23159 2.76019 0 8.03571 0C10.7865 0 13.2893 1.34138 15 3.6642C16.7107 1.34139 19.2135 0 21.9643 0C27.2398 0 30 5.23159 30 8.03571C30 15.6958 24.2149 21.3731 18.0898 27.3832C17.3186 28.1396 16.5381 28.9055 15.7575 29.6861C15.5483 29.8954 15.2741 30 15 30ZM8.03573 2.14287C3.95508 2.14287 2.14287 6.41289 2.14287 8.03572C2.14287 14.796 7.36504 19.9208 13.4117 25.8534C13.937 26.3703 14.4685 26.8903 15 27.4177C15.5315 26.8903 16.0631 26.3703 16.5883 25.8534C22.635 19.9208 27.8572 14.796 27.8572 8.03572C27.8572 6.41288 26.0449 2.14287 21.9643 2.14287C18.3712 2.14287 16.5674 4.97525 15.9585 6.19316C15.5943 6.91931 14.4057 6.91931 14.0416 6.19316C13.4326 4.97525 11.6288 2.14287 8.03573 2.14287Z" fill="#6A687D"/>
</svg>
