<svg width="12" height="13" viewBox="0 0 12 13" fill="none" xmlns="http://www.w3.org/2000/svg">
<path d="M11.6853 9.20828L10.0072 7.59241C9.40783 7.01531 8.38894 7.24617 8.14921 7.99637C7.9694 8.51579 7.37006 8.80433 6.83065 8.68889C5.63197 8.40034 4.01374 6.89989 3.71407 5.68798C3.53427 5.16857 3.89387 4.59147 4.43328 4.41837C5.21243 4.18753 5.45216 3.20646 4.85282 2.62936L3.17466 1.01349C2.69519 0.609518 1.97598 0.609518 1.55644 1.01349L0.417686 2.10997C-0.721065 3.26417 0.537555 6.32279 3.35447 9.03515C6.17138 11.7475 9.34789 13.0172 10.5466 11.8629L11.6853 10.7664C12.1049 10.3048 12.1049 9.61225 11.6853 9.20828Z" fill="#201D41"/>
</svg>
