<svg width="23" height="20" viewBox="0 0 23 20" fill="none" xmlns="http://www.w3.org/2000/svg">
<path d="M10.6106 0.729954C10.9827 0.00623775 12.0173 0.00623667 12.3894 0.729953L14.9364 5.68439C15.0852 5.97374 15.3654 6.17264 15.6876 6.21759L21.3137 7.00241C22.1465 7.11859 22.4728 8.1484 21.8588 8.72298L17.8408 12.4829C17.5934 12.7144 17.4801 13.0554 17.5397 13.3889L18.4953 18.7377C18.6402 19.5492 17.7962 20.1777 17.0603 19.8063L11.9506 17.2274C11.6672 17.0844 11.3328 17.0844 11.0494 17.2274L5.93972 19.8063C5.20378 20.1777 4.35976 19.5492 4.50474 18.7377L5.46034 13.3889C5.51993 13.0554 5.40659 12.7144 5.1592 12.4829L1.14122 8.72298C0.527193 8.1484 0.853454 7.11859 1.68633 7.00241L7.3124 6.21759C7.63463 6.17264 7.91484 5.97374 8.0636 5.68439L10.6106 0.729954Z" fill="#FFA31A"/>
</svg>
