<svg width="15" height="13" viewBox="0 0 15 13" fill="none" xmlns="http://www.w3.org/2000/svg">
<path d="M14.0377 0.990852C13.8697 0.78545 13.6182 0.672363 13.3293 0.672363C13.1722 0.672363 13.0059 0.705408 12.8349 0.770763L1.19575 5.21377C0.57807 5.44949 0.494881 5.80323 0.500231 5.9931C0.505581 6.18298 0.608702 6.53147 1.23876 6.73194C1.24253 6.7331 1.24631 6.73425 1.25009 6.7353L3.66435 7.4262L4.96999 11.1597C5.14801 11.6687 5.54759 11.9849 6.01295 11.9849C6.30636 11.9849 6.59495 11.862 6.84756 11.6295L8.34087 10.2545L10.5068 11.9986C10.507 11.9988 10.5074 11.9989 10.5076 11.9991L10.5281 12.0156C10.53 12.0171 10.532 12.0187 10.5339 12.0202C10.7747 12.2069 11.0374 12.3055 11.2941 12.3056H11.2942C11.7958 12.3056 12.1952 11.9343 12.3115 11.3599L14.2185 1.94328C14.2951 1.56531 14.2309 1.2271 14.0377 0.990852ZM4.47201 7.29496L9.12986 4.91542L6.22957 7.99719C6.18205 8.04765 6.14838 8.10944 6.1318 8.17668L5.57256 10.442L4.47201 7.29496ZM6.30175 11.0368C6.28244 11.0545 6.26304 11.0704 6.24363 11.0849L6.76249 8.9835L7.70631 9.74353L6.30175 11.0368ZM13.4289 1.7833L11.5219 11.2C11.5035 11.2901 11.4449 11.4998 11.2941 11.4998C11.2197 11.4998 11.1261 11.4592 11.0303 11.3855L8.57596 9.40931C8.57565 9.40899 8.57523 9.40868 8.57481 9.40847L7.11444 8.23249L11.3086 3.77585C11.4429 3.63318 11.4551 3.41466 11.3375 3.25794C11.2198 3.10121 11.0065 3.0519 10.832 3.14107L3.93374 6.66522L1.48665 5.96509L13.1222 1.52345C13.2205 1.4859 13.2891 1.47803 13.3293 1.47803C13.3539 1.47803 13.3978 1.48096 13.414 1.501C13.4354 1.52712 13.4627 1.61619 13.4289 1.7833Z" fill="white"/>
</svg>
