<svg width="30" height="30" viewBox="0 0 30 30" fill="none" xmlns="http://www.w3.org/2000/svg">
<path d="M26.2021 3.46348L17.3071 4.93617C16.9969 4.37689 16.4893 3.94184 15.8789 3.72539V0H14.1211V3.72539C13.238 4.03857 12.5704 4.80961 12.4041 5.75174L3.72826 7.18816L0 18.373V18.5156C0 20.9388 1.97139 22.9102 4.39453 22.9102C6.81768 22.9102 8.78906 20.9388 8.78906 18.5156V18.373L5.55393 8.66766L12.6929 7.4857C13.0032 8.04498 13.5108 8.47998 14.1211 8.69648V24.7266H8.84766V25.6055C8.84766 27.0594 7.66482 28.2422 6.21094 28.2422H5.33203V30H24.668V28.2422H23.7891C22.3352 28.2422 21.1523 27.0594 21.1523 25.6055V24.7266H15.8789V8.69648C16.762 8.3833 17.4296 7.61227 17.5959 6.67014L24.3107 5.55838L21.2109 14.8574V15C21.2109 17.4231 23.1823 19.3945 25.6055 19.3945C28.0286 19.3945 30 17.4231 30 15V14.8574L26.2021 3.46348ZM4.39453 21.1523C3.24873 21.1523 2.27127 20.4176 1.90852 19.3939H6.88055C6.51779 20.4176 5.54033 21.1523 4.39453 21.1523ZM6.6907 17.6367H2.09836L4.39453 10.7481L6.6907 17.6367ZM19.4828 26.4844C19.6151 27.1333 19.891 27.731 20.2755 28.2422H9.72451C10.1091 27.731 10.3849 27.1333 10.5172 26.4844H19.4828ZM15 7.08984C14.5154 7.08984 14.1211 6.69557 14.1211 6.21094C14.1211 5.72631 14.5154 5.33203 15 5.33203C15.4846 5.33203 15.8789 5.72631 15.8789 6.21094C15.8789 6.69557 15.4846 7.08984 15 7.08984ZM25.6055 7.23246L27.9016 14.1211H23.3092L25.6055 7.23246ZM25.6055 17.6367C24.4597 17.6367 23.4822 16.902 23.1195 15.8783H28.0915C27.7287 16.902 26.7513 17.6367 25.6055 17.6367Z" fill="#6A687D"/>
</svg>
