<?xml version="1.0" encoding="utf-8"?><svg xmlns="http://www.w3.org/2000/svg" xmlns:xlink="http://www.w3.org/1999/xlink"><symbol viewBox="0 0 14 8" id="arrow" xmlns="http://www.w3.org/2000/svg"><path d="M13.84 3.613L10.981.768a.547.547 0 00-.772.775l1.918 1.91H.548a.547.547 0 100 1.093H12.13l-1.919 1.91a.547.547 0 00.772.774l2.857-2.843a.547.547 0 000-.775z"/></symbol><symbol viewBox="0 0 9 16" id="arrow2" xmlns="http://www.w3.org/2000/svg"><path d="M.187 7.501L7.8.18c.25-.24.654-.24.903 0a.6.6 0 01-.002.87l-7.16 6.887 7.16 6.886a.6.6 0 01.002.87.649.649 0 01-.452.18.648.648 0 01-.45-.18L.186 8.374a.604.604 0 010-.872z"/></symbol><symbol viewBox="0 0 31 30" id="basket" xmlns="http://www.w3.org/2000/svg"><path d="M8.988 19.838h17.787c2.017 0 3.663-1.535 3.663-3.418V9.36c0-.011 0-.024-.007-.036 0-.013-.007-.031-.007-.044 0-.012-.006-.024-.006-.037-.007-.012-.007-.024-.014-.043-.006-.012-.006-.025-.013-.037-.007-.013-.007-.025-.013-.037-.007-.013-.014-.025-.02-.044-.007-.012-.013-.024-.02-.03a6.719 6.719 0 01-.02-.038l-.02-.03c-.006-.013-.02-.026-.026-.038a.11.11 0 00-.027-.03c-.007-.013-.02-.02-.026-.032-.007-.012-.02-.018-.027-.03-.007-.013-.02-.02-.026-.026l-.034-.03c-.013-.007-.02-.02-.033-.025-.013-.007-.026-.019-.04-.025-.013-.006-.02-.012-.033-.019-.013-.006-.026-.012-.04-.024l-.04-.019-.04-.019-.04-.018c-.012-.006-.026-.006-.039-.013a.13.13 0 00-.046-.012c-.014 0-.027-.006-.034-.006-.02-.006-.033-.006-.053-.006-.006 0-.013-.007-.026-.007L7.123 5.701V2.766c0-.03 0-.062-.006-.087 0-.006 0-.012-.007-.024 0-.019-.007-.038-.007-.056-.006-.019-.006-.031-.013-.05 0-.012-.007-.018-.007-.03-.006-.02-.013-.038-.02-.056 0-.007-.006-.019-.006-.025a.181.181 0 00-.027-.05c-.006-.006-.006-.018-.013-.024a.13.13 0 00-.027-.038c-.006-.012-.013-.018-.02-.03-.006-.013-.013-.02-.02-.032-.006-.012-.02-.024-.026-.037a33.813 33.813 0 01-.02-.018l-.04-.037-.02-.019c-.013-.012-.026-.025-.046-.037-.007-.006-.02-.013-.026-.019-.014-.012-.027-.018-.04-.03l-.053-.032c-.007-.006-.014-.006-.02-.012l-.086-.037-4.89-1.92C1.225-.114.7.085.508.512c-.192.427.02.917.478 1.096l4.34 1.71v18.316c0 1.734 1.392 3.17 3.19 3.387A3.21 3.21 0 008 26.755c0 1.864 1.625 3.375 3.616 3.375 1.99 0 3.616-1.517 3.616-3.375 0-.619-.18-1.207-.498-1.703h8.055a3.16 3.16 0 00-.498 1.703c0 1.864 1.626 3.375 3.616 3.375 1.99 0 3.616-1.517 3.616-3.375 0-1.857-1.626-3.374-3.616-3.374H8.988c-1.035 0-1.871-.787-1.871-1.747v-2.266c.544.297 1.187.47 1.87.47zm4.458 6.911c0 .941-.823 1.703-1.825 1.703-1.001 0-1.824-.768-1.824-1.703s.823-1.703 1.824-1.703c1.002 0 1.825.762 1.825 1.703zm14.291 0c0 .941-.822 1.703-1.824 1.703-1.002 0-1.825-.768-1.825-1.703s.823-1.703 1.825-1.703 1.824.762 1.824 1.703zm-.962-8.582H8.988c-1.035 0-1.871-.787-1.871-1.747V7.385l21.53 2.769v6.26c0 .972-.843 1.752-1.872 1.752z"/></symbol><symbol viewBox="0 0 17 17" id="catalog-icon" xmlns="http://www.w3.org/2000/svg"><path d="M5.87 17H1.966A1.968 1.968 0 010 15.034V11.13c0-1.084.882-1.966 1.966-1.966H5.87c1.084 0 1.966.882 1.966 1.966v3.904A1.968 1.968 0 015.87 17zm.638-5.87a.638.638 0 00-.638-.638H1.966a.639.639 0 00-.638.638v3.904c0 .352.286.638.638.638H5.87a.638.638 0 00.638-.638V11.13zm8.5 5.87h-3.852a1.994 1.994 0 01-1.992-1.992v-3.852c0-1.098.894-1.992 1.992-1.992h3.852c1.098 0 1.992.894 1.992 1.992v3.852A1.994 1.994 0 0115.008 17zm.664-5.844a.665.665 0 00-.664-.664h-3.852a.665.665 0 00-.664.664v3.852c0 .366.298.664.664.664h3.852a.665.665 0 00.664-.664v-3.852zM5.87 7.836H1.966A1.968 1.968 0 010 5.87V1.966C0 .882.882 0 1.966 0H5.87c1.084 0 1.966.882 1.966 1.966V5.87A1.968 1.968 0 015.87 7.836zm.638-5.87a.639.639 0 00-.638-.638H1.966a.639.639 0 00-.638.638V5.87c0 .352.286.638.638.638H5.87a.638.638 0 00.638-.638V1.966zm8.5 5.87h-3.852a1.994 1.994 0 01-1.992-1.992V1.992C9.164.894 10.058 0 11.156 0h3.852C16.106 0 17 .894 17 1.992v3.852a1.994 1.994 0 01-1.992 1.992zm.664-5.844a.665.665 0 00-.664-.664h-3.852a.665.665 0 00-.664.664v3.852c0 .366.298.664.664.664h3.852a.665.665 0 00.664-.664V1.992z"/></symbol><symbol viewBox="0 0 13 9" id="check" xmlns="http://www.w3.org/2000/svg"><path d="M1.575 4.23L5.075 8l6.5-7"/></symbol><symbol viewBox="0 0 13 14" id="close" xmlns="http://www.w3.org/2000/svg"><g clip-path="url(#fclip0)"><path d="M.672 13.5a.669.669 0 01-.473-1.142L11.861.696a.669.669 0 11.946.946L1.145 13.304a.67.67 0 01-.473.196z"/><path d="M12.335 13.5a.664.664 0 01-.473-.196L.2 1.642a.669.669 0 01.946-.946l11.662 11.662a.669.669 0 01-.472 1.142z"/></g><defs><clipPath id="fclip0"><path transform="translate(0 .5)" d="M0 0h13v13H0z"/></clipPath></defs></symbol><symbol viewBox="0 0 30 30" id="heart" xmlns="http://www.w3.org/2000/svg"><path d="M15 30c-.274 0-.548-.105-.758-.314a339.6 339.6 0 00-2.332-2.303C5.785 21.373 0 15.696 0 8.036 0 5.232 2.76 0 8.036 0c2.75 0 5.253 1.341 6.964 3.664C16.71 1.341 19.213 0 21.964 0 27.24 0 30 5.232 30 8.036c0 7.66-5.785 13.337-11.91 19.347-.771.757-1.552 1.523-2.332 2.303-.21.21-.484.314-.758.314zM8.036 2.143c-4.08 0-5.893 4.27-5.893 5.893 0 6.76 5.222 11.885 11.269 17.817.525.517 1.056 1.037 1.588 1.565.531-.528 1.063-1.048 1.588-1.565 6.047-5.932 11.27-11.057 11.27-17.817 0-1.623-1.813-5.893-5.894-5.893-3.593 0-5.397 2.832-6.005 4.05-.365.726-1.553.726-1.917 0-.61-1.218-2.413-4.05-6.006-4.05z"/></symbol><symbol viewBox="0 0 16 16" id="like" xmlns="http://www.w3.org/2000/svg"><g clip-path="url(#hclip0)"><path d="M1.167 15.333h1.666c.644 0 1.167-.523 1.167-1.166V6.5c0-.643-.523-1.167-1.167-1.167H1.167C.523 5.333 0 5.857 0 6.5v7.667c0 .643.523 1.166 1.167 1.166zM8.52.5c-.666 0-1 .333-1 2 0 1.584-1.533 2.859-2.52 3.515v8.259c1.067.494 3.204 1.226 6.52 1.226h1.067c1.3 0 2.407-.933 2.627-2.213l.747-4.334a2.665 2.665 0 00-2.627-3.12h-3.147s.5-1 .5-2.666c0-2-1.5-2.667-2.166-2.667z"/></g><defs><clipPath id="hclip0"><path d="M0 0h16v16H0z"/></clipPath></defs></symbol><symbol viewBox="0 0 12 13" id="phone" xmlns="http://www.w3.org/2000/svg"><path d="M11.685 9.208l-1.678-1.616c-.6-.577-1.618-.346-1.858.404-.18.52-.779.808-1.318.693-1.199-.289-2.817-1.79-3.117-3.001-.18-.52.18-1.097.72-1.27a1.058 1.058 0 00.419-1.789L3.175 1.013c-.48-.403-1.199-.403-1.619 0L.418 2.11c-1.14 1.154.12 4.213 2.936 6.925 2.817 2.713 5.994 3.982 7.193 2.828l1.138-1.097c.42-.461.42-1.154 0-1.558z"/></symbol><symbol viewBox="0 0 20 20" id="search" xmlns="http://www.w3.org/2000/svg"><g clip-path="url(#jclip0)"><path d="M8.82.024C3.955.024 0 3.97 0 8.82s3.956 8.795 8.82 8.795c4.862 0 8.819-3.945 8.819-8.795S13.682.024 8.819.024zm0 16.145c-4.067 0-7.374-3.298-7.374-7.35s3.307-7.35 7.373-7.35c4.066 0 7.374 3.298 7.374 7.35s-3.308 7.35-7.374 7.35z"/><path d="M19.787 18.74l-4.747-4.722a.723.723 0 00-1.02 1.025l4.747 4.723a.721.721 0 001.023-.003.723.723 0 00-.003-1.023z"/></g><defs><clipPath id="jclip0"><path d="M0 0h20v20H0z"/></clipPath></defs></symbol><symbol viewBox="0 0 23 20" id="star" xmlns="http://www.w3.org/2000/svg"><path d="M10.61.73a1 1 0 011.78 0l2.546 4.954a1 1 0 00.752.534l5.626.784a1 1 0 01.545 1.721l-4.018 3.76a1 1 0 00-.301.906l.955 5.349a1 1 0 01-1.435 1.068l-5.11-2.579a1 1 0 00-.9 0l-5.11 2.58a1 1 0 01-1.435-1.07l.955-5.348a1 1 0 00-.3-.906l-4.02-3.76a1 1 0 01.545-1.72l5.626-.785a1 1 0 00.752-.534L10.61.73z"/></symbol><symbol viewBox="0 0 15 13" id="telegram" xmlns="http://www.w3.org/2000/svg"><path d="M14.038.99a.893.893 0 00-.709-.318 1.39 1.39 0 00-.494.099L1.195 5.214c-.617.235-.7.59-.695.78.006.189.109.537.739.738a.43.43 0 00.011.003l2.414.691L4.97 11.16c.178.509.578.825 1.043.825.293 0 .582-.123.835-.355l1.493-1.376L10.507 12l.021.017.006.004c.24.187.503.286.76.286.502 0 .901-.372 1.018-.946l1.907-9.417c.076-.378.012-.716-.181-.952zM4.472 7.296l4.658-2.38-2.9 3.082a.402.402 0 00-.098.18l-.56 2.265-1.1-3.147zm1.83 3.742a.75.75 0 01-.058.048l.518-2.102.944.76-1.404 1.294zm7.127-9.254L11.522 11.2c-.018.09-.077.3-.228.3a.47.47 0 01-.264-.114L8.576 9.409h-.001l-1.46-1.177 4.194-4.456a.403.403 0 00-.477-.635L3.934 6.665l-2.447-.7 11.635-4.442a.59.59 0 01.207-.045c.025 0 .069.003.085.023.021.026.049.115.015.282z"/></symbol><symbol viewBox="0 0 30 30" id="weigh" xmlns="http://www.w3.org/2000/svg"><path d="M26.202 3.463l-8.895 1.473a2.65 2.65 0 00-1.428-1.21V0H14.12v3.725a2.645 2.645 0 00-1.717 2.027L3.728 7.188 0 18.373v.143a4.4 4.4 0 004.395 4.394 4.4 4.4 0 004.394-4.394v-.143L5.554 8.668l7.139-1.182c.31.559.818.994 1.428 1.21v16.03H8.848v.88a2.64 2.64 0 01-2.637 2.636h-.879V30h19.336v-1.758h-.879a2.64 2.64 0 01-2.637-2.637v-.878H15.88V8.697a2.645 2.645 0 001.717-2.027l6.715-1.112-3.1 9.3V15a4.4 4.4 0 004.395 4.395A4.4 4.4 0 0030 15v-.143L26.202 3.463zM4.395 21.153a2.641 2.641 0 01-2.486-1.76H6.88a2.641 2.641 0 01-2.486 1.76zm2.296-3.516H2.098l2.297-6.889 2.296 6.889zm12.792 8.847a4.38 4.38 0 00.793 1.758H9.725a4.38 4.38 0 00.792-1.758h8.966zM15 7.09a.88.88 0 010-1.758.88.88 0 010 1.758zm10.605.142l2.297 6.89h-4.593l2.296-6.89zm0 10.405a2.64 2.64 0 01-2.486-1.759h4.973a2.641 2.641 0 01-2.486 1.759z"/></symbol><symbol viewBox="0 0 14 15" id="whatsapp" xmlns="http://www.w3.org/2000/svg"><path d="M.006 14.502l.98-3.48a6.964 6.964 0 01-.962-3.539A6.993 6.993 0 017.009.498a6.993 6.993 0 016.985 6.985A6.993 6.993 0 017.01 14.47c-1.2 0-2.375-.308-3.415-.891l-3.588.924zm3.772-2.195l.213.13c.907.554 1.95.847 3.018.847 3.198 0 5.8-2.602 5.8-5.8 0-3.199-2.602-5.8-5.8-5.8a5.807 5.807 0 00-5.8 5.8 5.78 5.78 0 00.916 3.129l.144.224-.565 2.004 2.074-.534z"/><path d="M5.047 4.232l-.453-.024a.548.548 0 00-.39.133c-.22.19-.57.56-.679 1.04-.16.717.088 1.595.732 2.473.643.877 1.843 2.282 3.964 2.881.684.194 1.221.063 1.636-.202.329-.21.555-.548.637-.929l.072-.338a.235.235 0 00-.131-.262l-1.532-.706a.235.235 0 00-.284.07l-.602.779a.172.172 0 01-.193.058c-.412-.145-1.791-.723-2.548-2.181a.174.174 0 01.022-.194l.574-.665a.235.235 0 00.039-.246l-.66-1.544a.235.235 0 00-.204-.143z"/></symbol></svg>