<svg width="20" height="20" viewBox="0 0 20 20" fill="none" xmlns="http://www.w3.org/2000/svg">
<g clip-path="url(#clip0)">
<path d="M8.81927 0.0240631C3.95637 0.0240631 0 3.96962 0 8.81927C0 13.6689 3.95641 17.6145 8.81927 17.6145C13.6821 17.6145 17.6386 13.6689 17.6386 8.81927C17.6386 3.96962 13.6822 0.0240631 8.81927 0.0240631ZM8.81927 16.1687C4.75349 16.1687 1.44578 12.8715 1.44578 8.81924C1.44578 4.76669 4.75349 1.46981 8.81927 1.46981C12.8851 1.46981 16.1928 4.76669 16.1928 8.81924C16.1928 12.8715 12.8851 16.1687 8.81927 16.1687Z" fill="#D53A3A"/>
<path d="M19.7869 18.7405L15.0399 14.0176C14.7567 13.7362 14.2991 13.7374 14.0174 14.0203C13.736 14.3034 13.7372 14.761 14.0201 15.0427L18.7671 19.7656C18.9083 19.9058 19.0924 19.9759 19.277 19.9759C19.4628 19.9759 19.6483 19.9048 19.7895 19.7629C20.071 19.4798 20.0698 19.0222 19.7869 18.7405Z" fill="#D53A3A"/>
</g>
<defs>
<clipPath id="clip0">
<rect width="20" height="20" fill="white"/>
</clipPath>
</defs>
</svg>
