<svg width="14" height="15" viewBox="0 0 14 15" fill="none" xmlns="http://www.w3.org/2000/svg">
<path d="M0.00585938 14.5017L0.985516 11.0223C0.355539 9.95203 0.0238523 8.73433 0.0238523 7.48342C0.0238523 3.63181 3.15737 0.498291 7.00898 0.498291C10.8606 0.498291 13.9941 3.63181 13.9941 7.48342C13.9941 11.335 10.8606 14.4685 7.00898 14.4685C5.80884 14.4685 4.63368 14.1613 3.59407 13.578L0.00585938 14.5017ZM3.77751 12.3072L3.99132 12.4378C4.89774 12.9911 5.94125 13.2836 7.00898 13.2836C10.2072 13.2836 12.8092 10.6817 12.8092 7.48342C12.8092 4.28517 10.2072 1.6832 7.00898 1.6832C3.81074 1.6832 1.20876 4.28517 1.20876 7.48342C1.20876 8.59781 1.52548 9.67998 2.12461 10.6129L2.2686 10.8372L1.70445 12.8409L3.77751 12.3072Z" fill="white"/>
<path d="M5.04717 4.2323L4.59393 4.20759C4.45156 4.19983 4.31192 4.2474 4.20431 4.34087C3.98457 4.53169 3.63323 4.90059 3.52531 5.38131C3.36438 6.09809 3.61308 6.97581 4.25675 7.85352C4.90042 8.73123 6.09994 10.1356 8.22106 10.7353C8.90458 10.9286 9.44227 10.7983 9.85712 10.5329C10.1857 10.3228 10.4122 9.98543 10.4938 9.60407L10.5662 9.26606C10.5892 9.15863 10.5346 9.04962 10.4348 9.00362L8.903 8.29755C8.80356 8.25173 8.68564 8.2807 8.61876 8.36737L8.01739 9.14695C7.97197 9.20585 7.8942 9.2292 7.82399 9.20453C7.41217 9.0598 6.03267 8.48204 5.27573 7.02399C5.2429 6.96075 5.25107 6.884 5.29763 6.83006L5.87235 6.1652C5.93107 6.0973 5.94591 6.00185 5.91062 5.91935L5.25032 4.37453C5.21517 4.29229 5.13639 4.23717 5.04717 4.2323Z" fill="white"/>
</svg>
